<svg xmlns="http://www.w3.org/2000/svg" xmlns:xlink="http://www.w3.org/1999/xlink" width="300" zoomAndPan="magnify" viewBox="0 0 224.87999 89.999999" height="120" preserveAspectRatio="xMidYMid meet" version="1.0"><defs><g/><clipPath id="4554c2e399"><path d="M 63 33.253906 L 79 33.253906 L 79 63 L 63 63 Z M 63 33.253906 " clip-rule="nonzero"/></clipPath><clipPath id="5854a13172"><path d="M 24.332031 33.253906 L 76 33.253906 L 76 63 L 24.332031 63 Z M 24.332031 33.253906 " clip-rule="nonzero"/></clipPath></defs><g fill="#004aad" fill-opacity="1"><g transform="translate(70.769356, 61.218938)"><g><path d="M 12.203125 -6.25 C 11.691406 -6.21875 11.210938 -6.144531 10.765625 -6.03125 C 10.316406 -5.925781 9.878906 -5.804688 9.453125 -5.671875 C 10.484375 -4.296875 11.664062 -3.289062 13 -2.65625 C 14.34375 -2.019531 15.78125 -1.703125 17.3125 -1.703125 C 17.75 -1.703125 18.125 -1.726562 18.4375 -1.78125 C 18.75 -1.832031 19.015625 -1.890625 19.234375 -1.953125 C 18.878906 -2.359375 18.453125 -2.8125 17.953125 -3.3125 C 17.453125 -3.8125 16.894531 -4.273438 16.28125 -4.703125 C 15.675781 -5.140625 15.023438 -5.503906 14.328125 -5.796875 C 13.640625 -6.097656 12.929688 -6.25 12.203125 -6.25 Z M 14.921875 -24.859375 C 14.410156 -24.859375 13.863281 -24.796875 13.28125 -24.671875 C 12.695312 -24.554688 12.117188 -24.363281 11.546875 -24.09375 C 10.984375 -23.820312 10.425781 -23.457031 9.875 -23 C 9.320312 -22.539062 8.828125 -21.984375 8.390625 -21.328125 C 7.847656 -20.546875 7.425781 -19.617188 7.125 -18.546875 C 6.832031 -17.484375 6.6875 -16.179688 6.6875 -14.640625 C 6.6875 -13.046875 6.894531 -11.503906 7.3125 -10.015625 C 7.738281 -8.523438 8.367188 -7.175781 9.203125 -5.96875 C 10.335938 -6.5625 11.332031 -6.957031 12.1875 -7.15625 C 13.039062 -7.363281 13.804688 -7.46875 14.484375 -7.46875 C 15.972656 -7.46875 17.363281 -7.128906 18.65625 -6.453125 C 19.957031 -5.773438 21.175781 -4.800781 22.3125 -3.53125 C 23.53125 -4.664062 24.394531 -5.890625 24.90625 -7.203125 C 25.414062 -8.515625 25.671875 -10.019531 25.671875 -11.71875 C 25.671875 -13.507812 25.351562 -15.316406 24.71875 -17.140625 C 24.082031 -18.960938 23.15625 -20.523438 21.9375 -21.828125 C 21.070312 -22.773438 20.046875 -23.515625 18.859375 -24.046875 C 17.671875 -24.585938 16.359375 -24.859375 14.921875 -24.859375 Z M 1.828125 -13.390625 C 1.828125 -15.410156 2.195312 -17.265625 2.9375 -18.953125 C 3.6875 -20.648438 4.707031 -22.109375 6 -23.328125 C 7.300781 -24.546875 8.820312 -25.5 10.5625 -26.1875 C 12.3125 -26.875 14.171875 -27.21875 16.140625 -27.21875 C 18.140625 -27.21875 20.019531 -26.863281 21.78125 -26.15625 C 23.539062 -25.457031 25.066406 -24.484375 26.359375 -23.234375 C 27.660156 -21.992188 28.679688 -20.507812 29.421875 -18.78125 C 30.171875 -17.050781 30.546875 -15.171875 30.546875 -13.140625 C 30.546875 -10.597656 29.957031 -8.347656 28.78125 -6.390625 C 27.601562 -4.429688 26.015625 -2.84375 24.015625 -1.625 C 24.640625 -1 25.34375 -0.414062 26.125 0.125 C 26.90625 0.664062 27.8125 0.9375 28.84375 0.9375 C 29.65625 0.9375 30.34375 0.675781 30.90625 0.15625 C 31.476562 -0.351562 31.765625 -1 31.765625 -1.78125 C 31.765625 -1.914062 31.75 -2.078125 31.71875 -2.265625 C 31.6875 -2.460938 31.644531 -2.628906 31.59375 -2.765625 L 31.921875 -2.875 C 32.109375 -2.445312 32.234375 -2.054688 32.296875 -1.703125 C 32.367188 -1.347656 32.40625 -0.984375 32.40625 -0.609375 C 32.40625 0.847656 31.9375 2.050781 31 3 C 30.070312 3.945312 28.878906 4.421875 27.421875 4.421875 C 26.710938 4.421875 26.039062 4.273438 25.40625 3.984375 C 24.769531 3.703125 24.175781 3.335938 23.625 2.890625 C 23.070312 2.453125 22.546875 1.953125 22.046875 1.390625 C 21.546875 0.835938 21.078125 0.289062 20.640625 -0.25 C 20.097656 -0.03125 19.46875 0.148438 18.75 0.296875 C 18.039062 0.453125 17.210938 0.53125 16.265625 0.53125 C 13.859375 0.53125 11.753906 0.125 9.953125 -0.6875 C 8.160156 -1.5 6.660156 -2.5625 5.453125 -3.875 C 4.253906 -5.1875 3.347656 -6.671875 2.734375 -8.328125 C 2.128906 -9.992188 1.828125 -11.679688 1.828125 -13.390625 Z M 1.828125 -13.390625 "/></g></g></g><g fill="#004aad" fill-opacity="1"><g transform="translate(102.401738, 61.218938)"><g><path d="M 11.6875 -26.6875 L 11.6875 -26.328125 C 10.957031 -26.273438 10.375 -26.164062 9.9375 -26 C 9.5 -25.832031 9.160156 -25.539062 8.921875 -25.125 C 8.679688 -24.707031 8.515625 -24.125 8.421875 -23.375 C 8.328125 -22.632812 8.25 -21.65625 8.1875 -20.4375 L 7.671875 -10.1875 C 7.640625 -9.9375 7.625 -9.632812 7.625 -9.28125 C 7.625 -8.9375 7.625 -8.640625 7.625 -8.390625 C 7.625 -7.097656 7.785156 -6.050781 8.109375 -5.25 C 8.429688 -4.457031 8.921875 -3.789062 9.578125 -3.25 C 10.171875 -2.789062 10.898438 -2.425781 11.765625 -2.15625 C 12.628906 -1.882812 13.492188 -1.75 14.359375 -1.75 C 15.085938 -1.75 15.847656 -1.84375 16.640625 -2.03125 C 17.441406 -2.21875 18.25 -2.539062 19.0625 -3 C 19.875 -3.457031 20.535156 -4.113281 21.046875 -4.96875 C 21.566406 -5.820312 21.828125 -7.003906 21.828125 -8.515625 C 21.828125 -8.816406 21.828125 -9.09375 21.828125 -9.34375 C 21.828125 -9.601562 21.8125 -9.953125 21.78125 -10.390625 L 21.328125 -20.734375 C 21.273438 -21.890625 21.195312 -22.828125 21.09375 -23.546875 C 20.988281 -24.265625 20.800781 -24.828125 20.53125 -25.234375 C 20.257812 -25.640625 19.898438 -25.914062 19.453125 -26.0625 C 19.003906 -26.207031 18.414062 -26.296875 17.6875 -26.328125 L 17.6875 -26.6875 L 26.328125 -26.6875 L 26.328125 -26.328125 L 26.125 -26.28125 C 25.71875 -26.175781 25.367188 -26.0625 25.078125 -25.9375 C 24.796875 -25.8125 24.566406 -25.613281 24.390625 -25.34375 C 24.222656 -25.082031 24.101562 -24.710938 24.03125 -24.234375 C 23.96875 -23.765625 23.9375 -23.125 23.9375 -22.3125 C 23.9375 -21.957031 23.9375 -21.609375 23.9375 -21.265625 C 23.9375 -20.929688 23.945312 -20.585938 23.96875 -20.234375 L 24.421875 -8.890625 C 24.421875 -7.347656 24.222656 -6.054688 23.828125 -5.015625 C 23.441406 -3.972656 22.851562 -3.085938 22.0625 -2.359375 C 21.445312 -1.785156 20.789062 -1.316406 20.09375 -0.953125 C 19.40625 -0.585938 18.707031 -0.289062 18 -0.0625 C 17.300781 0.164062 16.597656 0.320312 15.890625 0.40625 C 15.191406 0.488281 14.53125 0.53125 13.90625 0.53125 C 13.34375 0.53125 12.707031 0.492188 12 0.421875 C 11.300781 0.359375 10.59375 0.242188 9.875 0.078125 C 9.15625 -0.078125 8.472656 -0.273438 7.828125 -0.515625 C 7.179688 -0.765625 6.628906 -1.066406 6.171875 -1.421875 C 5.222656 -2.117188 4.5 -2.925781 4 -3.84375 C 3.5 -4.769531 3.25 -5.921875 3.25 -7.296875 C 3.25 -7.835938 3.253906 -8.515625 3.265625 -9.328125 C 3.273438 -10.140625 3.304688 -10.925781 3.359375 -11.6875 L 3.8125 -20.484375 C 3.84375 -20.785156 3.859375 -21.085938 3.859375 -21.390625 C 3.859375 -21.703125 3.859375 -22.007812 3.859375 -22.3125 C 3.859375 -23.125 3.816406 -23.769531 3.734375 -24.25 C 3.648438 -24.738281 3.515625 -25.125 3.328125 -25.40625 C 3.140625 -25.695312 2.878906 -25.898438 2.546875 -26.015625 C 2.222656 -26.140625 1.804688 -26.242188 1.296875 -26.328125 L 1.296875 -26.6875 Z M 11.6875 -26.6875 "/></g></g></g><g fill="#004aad" fill-opacity="1"><g transform="translate(129.167596, 61.218938)"><g><path d="M 11.359375 -26.6875 L 11.359375 -26.328125 C 10.785156 -26.242188 10.320312 -26.078125 9.96875 -25.828125 C 9.625 -25.585938 9.359375 -25.285156 9.171875 -24.921875 C 8.984375 -24.554688 8.859375 -24.128906 8.796875 -23.640625 C 8.742188 -23.160156 8.71875 -22.632812 8.71875 -22.0625 L 8.71875 -4.875 C 8.71875 -4.332031 8.742188 -3.800781 8.796875 -3.28125 C 8.859375 -2.769531 8.972656 -2.3125 9.140625 -1.90625 C 9.316406 -1.5 9.582031 -1.160156 9.9375 -0.890625 C 10.289062 -0.617188 10.765625 -0.441406 11.359375 -0.359375 L 11.359375 0 L 1.625 0 L 1.625 -0.359375 C 2.21875 -0.441406 2.679688 -0.601562 3.015625 -0.84375 C 3.359375 -1.09375 3.625 -1.398438 3.8125 -1.765625 C 4 -2.128906 4.117188 -2.546875 4.171875 -3.015625 C 4.234375 -3.492188 4.265625 -4.015625 4.265625 -4.578125 L 4.265625 -21.828125 C 4.265625 -22.367188 4.234375 -22.894531 4.171875 -23.40625 C 4.117188 -23.914062 4 -24.375 3.8125 -24.78125 C 3.625 -25.1875 3.359375 -25.523438 3.015625 -25.796875 C 2.679688 -26.066406 2.21875 -26.242188 1.625 -26.328125 L 1.625 -26.6875 Z M 11.359375 -26.6875 "/></g></g></g><g fill="#004aad" fill-opacity="1"><g transform="translate(141.333878, 61.218938)"><g><path d="M 21.421875 -26.765625 C 21.742188 -26.765625 22.046875 -26.828125 22.328125 -26.953125 C 22.609375 -27.078125 22.832031 -27.285156 23 -27.578125 L 24.859375 -19.921875 L 24.546875 -19.796875 C 24.160156 -20.628906 23.660156 -21.378906 23.046875 -22.046875 C 22.441406 -22.710938 21.753906 -23.273438 20.984375 -23.734375 C 20.210938 -24.191406 19.375 -24.535156 18.46875 -24.765625 C 17.570312 -24.992188 16.632812 -25.109375 15.65625 -25.109375 C 14.0625 -25.109375 12.753906 -24.882812 11.734375 -24.4375 C 10.722656 -23.988281 9.867188 -23.375 9.171875 -22.59375 C 8.140625 -21.457031 7.421875 -20.191406 7.015625 -18.796875 C 6.609375 -17.410156 6.40625 -16.132812 6.40625 -14.96875 C 6.40625 -13.207031 6.695312 -11.515625 7.28125 -9.890625 C 7.863281 -8.273438 8.679688 -6.847656 9.734375 -5.609375 C 10.785156 -4.378906 12.0625 -3.398438 13.5625 -2.671875 C 15.0625 -1.941406 16.75 -1.578125 18.625 -1.578125 C 20.644531 -1.578125 22.398438 -2.125 23.890625 -3.21875 C 25.378906 -4.320312 26.582031 -5.84375 27.5 -7.78125 L 27.578125 -7.90625 L 27.984375 -7.75 L 24.859375 0.40625 C 24.617188 0.300781 24.347656 0.25 24.046875 0.25 C 23.753906 0.25 23.429688 0.257812 23.078125 0.28125 C 22.722656 0.3125 22.359375 0.335938 21.984375 0.359375 C 21.523438 0.421875 21.007812 0.460938 20.4375 0.484375 C 19.875 0.515625 19.253906 0.53125 18.578125 0.53125 C 15.410156 0.53125 12.742188 0.0664062 10.578125 -0.859375 C 8.421875 -1.796875 6.671875 -3 5.328125 -4.46875 C 3.992188 -5.945312 3.03125 -7.585938 2.4375 -9.390625 C 1.84375 -11.191406 1.546875 -12.957031 1.546875 -14.6875 C 1.546875 -16.3125 1.800781 -17.878906 2.3125 -19.390625 C 2.820312 -20.898438 3.644531 -22.226562 4.78125 -23.375 C 5.914062 -24.53125 7.375 -25.457031 9.15625 -26.15625 C 10.945312 -26.863281 13.097656 -27.21875 15.609375 -27.21875 C 16.859375 -27.21875 17.960938 -27.140625 18.921875 -26.984375 C 19.878906 -26.835938 20.710938 -26.765625 21.421875 -26.765625 Z M 21.421875 -26.765625 "/></g></g></g><g fill="#004aad" fill-opacity="1"><g transform="translate(168.910824, 61.218938)"><g><path d="M 11.1875 -26.6875 L 11.1875 -26.328125 C 10.050781 -26.210938 9.328125 -25.769531 9.015625 -25 C 8.710938 -24.226562 8.5625 -23.265625 8.5625 -22.109375 L 8.5625 -16.71875 L 11.84375 -19.34375 C 13.875 -20.96875 15.320312 -22.238281 16.1875 -23.15625 C 17.050781 -24.082031 17.484375 -24.8125 17.484375 -25.34375 C 17.484375 -25.695312 17.390625 -25.9375 17.203125 -26.0625 C 17.015625 -26.1875 16.742188 -26.273438 16.390625 -26.328125 L 16.390625 -26.6875 L 26.15625 -26.6875 L 26.15625 -26.328125 C 25.695312 -26.273438 25.238281 -26.207031 24.78125 -26.125 C 24.320312 -26.039062 23.804688 -25.859375 23.234375 -25.578125 C 22.671875 -25.296875 21.992188 -24.890625 21.203125 -24.359375 C 20.421875 -23.828125 19.476562 -23.101562 18.375 -22.1875 L 15.53125 -19.828125 C 16.425781 -18.960938 17.269531 -18.0625 18.0625 -17.125 C 18.863281 -16.195312 19.628906 -15.191406 20.359375 -14.109375 C 21.085938 -13.035156 21.789062 -11.851562 22.46875 -10.5625 C 23.144531 -9.28125 23.796875 -7.851562 24.421875 -6.28125 L 25.4375 -3.8125 C 25.59375 -3.40625 25.75 -3.007812 25.90625 -2.625 C 26.070312 -2.25 26.265625 -1.898438 26.484375 -1.578125 C 26.703125 -1.253906 26.957031 -0.984375 27.25 -0.765625 C 27.550781 -0.554688 27.921875 -0.421875 28.359375 -0.359375 L 28.359375 0 L 19.421875 0 L 19.421875 -0.359375 C 19.804688 -0.421875 20.140625 -0.582031 20.421875 -0.84375 C 20.703125 -1.113281 20.84375 -1.484375 20.84375 -1.953125 C 20.84375 -2.460938 20.691406 -3.238281 20.390625 -4.28125 C 20.097656 -5.320312 19.617188 -6.523438 18.953125 -7.890625 C 18.296875 -9.253906 17.429688 -10.734375 16.359375 -12.328125 C 15.296875 -13.921875 13.976562 -15.554688 12.40625 -17.234375 L 8.5625 -14.15625 L 8.5625 -4.875 C 8.5625 -4.300781 8.585938 -3.75 8.640625 -3.21875 C 8.691406 -2.695312 8.8125 -2.234375 9 -1.828125 C 9.1875 -1.421875 9.457031 -1.085938 9.8125 -0.828125 C 10.164062 -0.578125 10.625 -0.421875 11.1875 -0.359375 L 11.1875 0 L 1.453125 0 L 1.453125 -0.359375 C 2.023438 -0.441406 2.484375 -0.601562 2.828125 -0.84375 C 3.179688 -1.09375 3.453125 -1.398438 3.640625 -1.765625 C 3.835938 -2.128906 3.960938 -2.550781 4.015625 -3.03125 C 4.066406 -3.519531 4.09375 -4.050781 4.09375 -4.625 L 4.09375 -21.828125 C 4.09375 -22.390625 4.066406 -22.921875 4.015625 -23.421875 C 3.960938 -23.921875 3.835938 -24.375 3.640625 -24.78125 C 3.453125 -25.1875 3.179688 -25.523438 2.828125 -25.796875 C 2.484375 -26.066406 2.023438 -26.242188 1.453125 -26.328125 L 1.453125 -26.6875 Z M 11.1875 -26.6875 "/></g></g></g><g clip-path="url(#4554c2e399)"><path fill="#004aad" d="M 75.746094 58.535156 C 76.261719 56.792969 76.9375 53.601562 76.929688 51.765625 C 76.921875 49.925781 76.683594 48.664062 76.566406 48.03125 C 76.449219 47.398438 75.847656 46.347656 75.933594 46.15625 C 76.023438 45.964844 76.503906 45.796875 76.828125 45.582031 C 77.15625 45.367188 77.765625 44.972656 77.96875 44.789062 C 78.175781 44.609375 78.414062 44.542969 78.414062 44.542969 L 78.691406 44.519531 C 78.691406 44.519531 78.695312 44.441406 78.582031 44.398438 C 78.464844 44.351562 78.351562 44.304688 78.351562 44.304688 C 78.351562 44.304688 78.179688 43.90625 77.917969 43.691406 C 77.65625 43.484375 77.246094 43.183594 76.582031 43.144531 C 75.921875 43.105469 75.355469 43.386719 75.167969 43.257812 C 74.980469 43.128906 74.75 41.746094 74.121094 40.496094 C 73.492188 39.25 72.152344 37.449219 71.308594 36.539062 C 70.460938 35.628906 68.882812 34.386719 68.0625 33.921875 C 66.882812 33.253906 66.519531 33.285156 66.519531 33.285156 C 66.519531 33.285156 67.839844 35.003906 68.1875 35.765625 C 68.53125 36.53125 69.671875 38.433594 69.902344 39.152344 C 70.132812 39.871094 70.402344 39.925781 70.488281 40.4375 C 70.578125 40.953125 70.910156 41.949219 71.023438 42.621094 C 71.140625 43.292969 71.21875 43.960938 71.21875 43.960938 C 71.21875 43.960938 70.40625 44.460938 70.132812 44.480469 C 69.855469 44.503906 69.855469 44.503906 69.855469 44.503906 C 69.855469 44.503906 68.789062 44.714844 68.128906 44.675781 C 67.464844 44.636719 63.265625 45.375 63.253906 45.53125 C 63.246094 45.683594 67.738281 46.296875 67.71875 46.644531 C 67.699219 46.996094 66.578125 47.046875 66.371094 47.230469 C 66.167969 47.414062 63.324219 48.335938 63.394531 48.457031 C 63.464844 48.582031 67.648438 47.5 68.441406 47.273438 C 69.238281 47.046875 69.613281 47.140625 70.160156 47.132812 C 70.707031 47.125 71.851562 47.125 71.851562 47.125 C 71.851562 47.125 72.652344 48.773438 72.992188 49.617188 C 73.335938 50.457031 73.523438 51.25 73.609375 52.390625 C 73.699219 53.527344 73.882812 55.023438 73.882812 55.726562 C 73.878906 56.429688 74.015625 57.417969 73.992188 57.84375 C 73.964844 58.273438 73.964844 58.898438 73.886719 59.597656 C 73.804688 60.296875 73.695312 60.875 73.566406 61.6875 C 73.441406 62.503906 73.238281 62.953125 73.394531 62.964844 C 73.648438 62.984375 74.160156 62.234375 74.425781 61.703125 C 74.691406 61.167969 75.453125 59.535156 75.746094 58.535156 " fill-opacity="1" fill-rule="nonzero"/></g><g clip-path="url(#5854a13172)"><path fill="#004aad" d="M 73.394531 62.964844 L 73.921875 60.648438 L 24.402344 61.8125 Z M 74.648438 57.484375 L 75.191406 55.113281 L 24.402344 56.304688 Z M 74.019531 60.222656 L 74.558594 57.882812 L 24.402344 59.058594 Z M 24.402344 53.550781 L 75.273438 54.746094 L 75.824219 52.34375 Z M 71.894531 38.777344 L 71.789062 38.667969 L 24.402344 39.78125 L 72.53125 40.914062 Z M 74.296875 46.871094 L 24.402344 48.042969 L 75 49.230469 Z M 69.15625 35.976562 L 24.402344 37.027344 L 71.261719 38.128906 Z M 66.519531 33.285156 L 24.402344 34.273438 L 68.5 35.3125 Z M 75.109375 49.605469 L 24.402344 50.796875 L 75.820312 52.003906 Z M 72.675781 41.402344 L 24.402344 42.535156 L 73.351562 43.6875 Z M 73.488281 44.136719 L 24.402344 45.289062 L 74.175781 46.460938 L 73.488281 44.136719 " fill-opacity="1" fill-rule="nonzero"/></g></svg>